<svg xmlns="http://www.w3.org/2000/svg" viewBox="0 0 1920 1080" preserveAspectRatio="xMidYMid slice" class="railway-vector-canvas">
  <defs>
    <!-- Sky & Atmosphere Gradients -->
    <linearGradient id="skyGrad" x1="0%" y1="0%" x2="0%" y2="100%">
      <stop offset="0%" stop-color="var(--sky-color-top, #7DD3FC)"/>
      <stop offset="45%" stop-color="var(--sky-color-mid, #BAE6FD)"/>
      <stop offset="100%" stop-color="var(--sky-color-bot, #E0F2FE)"/>
    </linearGradient>

    <!-- Sun / Moonlight Radial Atmosphere -->
    <radialGradient id="sunAtmosphere" cx="78%" cy="18%" r="45%">
      <stop offset="0%" stop-color="var(--sun-glow-core, #FEF08A)" stop-opacity="0.85"/>
      <stop offset="25%" stop-color="var(--sun-glow-outer, #FDBA74)" stop-opacity="0.4"/>
      <stop offset="65%" stop-color="var(--sun-glow-ambient, #93C5FD)" stop-opacity="0.12"/>
      <stop offset="100%" stop-color="transparent" stop-opacity="0"/>
    </radialGradient>

    <!-- Mountain Layers -->
    <linearGradient id="mountFarGrad" x1="0%" y1="0%" x2="0%" y2="100%">
      <stop offset="0%" stop-color="var(--mount-far-top, #A78BFA)"/>
      <stop offset="55%" stop-color="var(--mount-far-mid, #818CF8)"/>
      <stop offset="100%" stop-color="var(--mount-far-bot, #6366F1)"/>
    </linearGradient>

    <linearGradient id="mountMidGrad" x1="0%" y1="0%" x2="0%" y2="100%">
      <stop offset="0%" stop-color="var(--mount-mid-top, #818CF8)"/>
      <stop offset="50%" stop-color="var(--mount-mid-mid, #60A5FA)"/>
      <stop offset="100%" stop-color="var(--mount-mid-bot, #3B82F6)"/>
    </linearGradient>

    <!-- Rolling Hills Gradients -->
    <linearGradient id="hillBackGrad" x1="0%" y1="0%" x2="0%" y2="100%">
      <stop offset="0%" stop-color="var(--hill-back-top, #84CC16)"/>
      <stop offset="60%" stop-color="var(--hill-back-bot, #22C55E)"/>
      <stop offset="100%" stop-color="var(--hill-back-shade, #16A34A)"/>
    </linearGradient>

    <linearGradient id="hillFrontGrad" x1="0%" y1="0%" x2="0%" y2="100%">
      <stop offset="0%" stop-color="var(--hill-front-top, #4ADE80)"/>
      <stop offset="50%" stop-color="var(--hill-front-mid, #22C55E)"/>
      <stop offset="100%" stop-color="var(--hill-front-bot, #15803D)"/>
    </linearGradient>

    <!-- River Water Gradient -->
    <linearGradient id="riverWaterGrad" x1="0%" y1="0%" x2="100%" y2="0%">
      <stop offset="0%" stop-color="var(--river-color-1, #0284C7)"/>
      <stop offset="50%" stop-color="var(--river-color-2, #38BDF8)"/>
      <stop offset="100%" stop-color="var(--river-color-3, #0284C7)"/>
    </linearGradient>

    <!-- Elevated Viaduct Bridge Gradient -->
    <linearGradient id="viaductDeckGrad" x1="0%" y1="0%" x2="0%" y2="100%">
      <stop offset="0%" stop-color="var(--viaduct-top, #CBD5E1)"/>
      <stop offset="50%" stop-color="var(--viaduct-mid, #94A3B8)"/>
      <stop offset="100%" stop-color="var(--viaduct-bot, #64748B)"/>
    </linearGradient>

    <!-- Train Headlight Beams -->
    <linearGradient id="headlightBeamR" x1="0%" y1="0%" x2="100%" y2="0%">
      <stop offset="0%" stop-color="var(--headlight-glow, #38BDF8)" stop-opacity="0.8"/>
      <stop offset="35%" stop-color="var(--headlight-glow, #38BDF8)" stop-opacity="0.35"/>
      <stop offset="100%" stop-color="var(--headlight-glow, #38BDF8)" stop-opacity="0"/>
    </linearGradient>

    <linearGradient id="headlightBeamL" x1="100%" y1="0%" x2="0%" y2="0%">
      <stop offset="0%" stop-color="var(--headlight-glow-warm, #FEF08A)" stop-opacity="0.8"/>
      <stop offset="35%" stop-color="var(--headlight-glow-warm, #FEF08A)" stop-opacity="0.35"/>
      <stop offset="100%" stop-color="var(--headlight-glow-warm, #FEF08A)" stop-opacity="0"/>
    </linearGradient>

    <!-- Cloud Gradients -->
    <linearGradient id="cloudGradWhite" x1="0%" y1="0%" x2="0%" y2="100%">
      <stop offset="0%" stop-color="#FFFFFF" stop-opacity="0.95"/>
      <stop offset="70%" stop-color="#F0F9FF" stop-opacity="0.9"/>
      <stop offset="100%" stop-color="#E0F2FE" stop-opacity="0.8"/>
    </linearGradient>

    <linearGradient id="cloudGradPink" x1="0%" y1="0%" x2="0%" y2="100%">
      <stop offset="0%" stop-color="#FFFFFF" stop-opacity="0.9"/>
      <stop offset="50%" stop-color="#FCE7F3" stop-opacity="0.85"/>
      <stop offset="100%" stop-color="#E9D5FF" stop-opacity="0.75"/>
    </linearGradient>

    <linearGradient id="cloudGradLavender" x1="0%" y1="0%" x2="0%" y2="100%">
      <stop offset="0%" stop-color="#F8FAFC" stop-opacity="0.9"/>
      <stop offset="60%" stop-color="#EDE9FE" stop-opacity="0.8"/>
      <stop offset="100%" stop-color="#DDD6FE" stop-opacity="0.7"/>
    </linearGradient>

    <!-- Station Canopy Gradients -->
    <linearGradient id="canopyGlass" x1="0%" y1="0%" x2="0%" y2="100%">
      <stop offset="0%" stop-color="var(--accent-cyan, #38BDF8)" stop-opacity="0.4"/>
      <stop offset="100%" stop-color="var(--accent-blue, #2563EB)" stop-opacity="0.15"/>
    </linearGradient>
  </defs>

  <!-- ========================================================
       LAYER 1: SKY BASE & SUN/MOON ATMOSPHERE
       ======================================================== -->
  <g class="world-layer-sky">
    <rect width="1920" height="1080" fill="url(#skyGrad)"/>
    <!-- Celestial Orb / Atmosphere -->
    <circle class="celestial-orb" cx="1500" cy="180" r="140" fill="url(#sunAtmosphere)"/>
    <circle class="celestial-disc" cx="1500" cy="180" r="42" fill="var(--celestial-disc-color, #FFFBEB)"/>

    <!-- Subtle Night Stars (visible in dark mode) -->
    <g class="night-sky-stars">
      <circle cx="120" cy="80" r="1.5" class="star star-1"/>
      <circle cx="280" cy="140" r="2" class="star star-2"/>
      <circle cx="450" cy="65" r="1" class="star star-3"/>
      <circle cx="620" cy="110" r="1.5" class="star star-1"/>
      <circle cx="820" cy="75" r="2" class="star star-2"/>
      <circle cx="980" cy="130" r="1.2" class="star star-3"/>
      <circle cx="1140" cy="90" r="1.8" class="star star-1"/>
      <circle cx="1320" cy="60" r="1.2" class="star star-2"/>
      <circle cx="1680" cy="110" r="1.5" class="star star-3"/>
      <circle cx="1820" cy="70" r="2" class="star star-1"/>
    </g>
  </g>

  <!-- ========================================================
       LAYER 2: COLORFUL DRIFTING CLOUDS (6 GROUPS)
       ======================================================== -->
  <g class="world-layer-clouds">
    <!-- Cloud Group 1: High Fluffy Cloud (70s speed) -->
    <g class="cloud-drift cloud-group-1">
      <path d="M 0 110 Q 20 80 50 85 Q 75 60 115 65 Q 155 50 190 75 Q 225 65 250 90 Q 280 95 295 120 Q 295 140 270 150 L 20 150 Q -10 140 0 110 Z" fill="url(#cloudGradWhite)"/>
    </g>

    <!-- Cloud Group 2: Pink/Sunrise Cloud (90s speed) -->
    <g class="cloud-drift cloud-group-2">
      <path d="M 0 160 Q 25 130 65 135 Q 100 110 150 120 Q 200 100 240 130 Q 280 125 310 155 L 20 185 Q -15 175 0 160 Z" fill="url(#cloudGradPink)"/>
    </g>

    <!-- Cloud Group 3: Lavender Billow Cloud (110s speed) -->
    <g class="cloud-drift cloud-group-3">
      <path d="M 0 75 Q 30 50 70 55 Q 110 30 160 45 Q 210 25 260 50 Q 300 45 330 75 L 20 105 Q -15 95 0 75 Z" fill="url(#cloudGradLavender)"/>
    </g>

    <!-- Cloud Group 4: Low Horizon Cloud (80s speed) -->
    <g class="cloud-drift cloud-group-4">
      <path d="M 0 190 Q 30 165 75 170 Q 115 145 170 155 Q 220 140 260 170 Q 295 165 320 195 L 20 220 Q -15 210 0 190 Z" fill="url(#cloudGradWhite)"/>
    </g>

    <!-- Cloud Group 5: Small Swift Cloud (55s speed) -->
    <g class="cloud-drift cloud-group-5">
      <path d="M 0 130 Q 20 110 50 115 Q 80 95 120 105 Q 155 100 180 125 L 15 145 Q -10 140 0 130 Z" fill="url(#cloudGradPink)"/>
    </g>

    <!-- Cloud Group 6: Whispy Sky Cloud (130s speed) -->
    <g class="cloud-drift cloud-group-6">
      <path d="M 0 60 Q 35 40 85 45 Q 135 25 195 40 Q 245 25 295 50 Q 345 40 380 70 L 25 90 Q -15 80 0 60 Z" fill="url(#cloudGradWhite)"/>
    </g>
  </g>

  <!-- ========================================================
       LAYER 3: DISTANT MOUNTAINS & RANGES (PURPLE / INDIGO)
       ======================================================== -->
  <g class="world-layer-mountains-far">
    <!-- Mountain Ridge Far (Purple/Indigo #818CF8, #6366F1, #A78BFA) -->
    <path class="mountain-silhouette mount-far" d="M -100 510 L 80 360 L 220 440 L 410 290 L 590 410 L 760 250 L 980 430 L 1180 270 L 1380 400 L 1560 280 L 1740 390 L 1920 270 L 2050 420 L 2050 680 L -100 680 Z" fill="url(#mountFarGrad)"/>
    <!-- Subtle Snow/Light Mountain Accents -->
    <polygon points="410,290 385,330 435,330" fill="rgba(255, 255, 255, 0.45)"/>
    <polygon points="760,250 730,300 790,300" fill="rgba(255, 255, 255, 0.45)"/>
    <polygon points="1180,270 1150,320 1210,320" fill="rgba(255, 255, 255, 0.45)"/>
    <polygon points="1560,280 1535,325 1585,325" fill="rgba(255, 255, 255, 0.45)"/>
    <polygon points="1920,270 1895,315 1945,315" fill="rgba(255, 255, 255, 0.45)"/>
  </g>

  <!-- ========================================================
       LAYER 4: CITY SKYLINE (MODERN TOWERS & LIT WINDOWS)
       ======================================================== -->
  <g class="world-layer-city">
    <!-- City Skyline Cluster in the distance (x: 750 to 1250) -->
    <g class="city-skyline" transform="translate(760, 310)">
      <!-- Tower 1 with Spire -->
      <rect x="0" y="70" width="34" height="120" rx="2" fill="var(--city-building-1, #4338CA)"/>
      <line x1="17" y1="35" x2="17" y2="70" stroke="var(--city-spire-color, #818CF8)" stroke-width="2"/>
      <circle cx="17" cy="35" r="2.5" fill="#EF4444" class="beacon-light"/>
      <rect x="6" y="80" width="6" height="8" rx="1" fill="#FEF08A"/>
      <rect x="22" y="80" width="6" height="8" rx="1" fill="#38BDF8"/>
      <rect x="6" y="96" width="6" height="8" rx="1" fill="#FEF08A"/>
      <rect x="22" y="96" width="6" height="8" rx="1" fill="#FEF08A"/>
      <rect x="6" y="112" width="6" height="8" rx="1" fill="#38BDF8"/>
      <rect x="22" y="112" width="6" height="8" rx="1" fill="#FEF08A"/>
      <rect x="6" y="128" width="6" height="8" rx="1" fill="#FEF08A"/>
      <rect x="22" y="128" width="6" height="8" rx="1" fill="#38BDF8"/>

      <!-- Tower 2 High-rise -->
      <rect x="42" y="45" width="46" height="145" rx="2" fill="var(--city-building-2, #3730A3)"/>
      <rect x="50" y="55" width="8" height="6" rx="1" fill="#FEF08A"/>
      <rect x="64" y="55" width="8" height="6" rx="1" fill="#FEF08A"/>
      <rect x="76" y="55" width="6" height="6" rx="1" fill="#38BDF8"/>
      <rect x="50" y="69" width="8" height="6" rx="1" fill="#38BDF8"/>
      <rect x="64" y="69" width="8" height="6" rx="1" fill="#FEF08A"/>
      <rect x="50" y="83" width="8" height="6" rx="1" fill="#FEF08A"/>
      <rect x="76" y="83" width="6" height="6" rx="1" fill="#FEF08A"/>
      <rect x="50" y="97" width="8" height="6" rx="1" fill="#38BDF8"/>
      <rect x="64" y="97" width="8" height="6" rx="1" fill="#FEF08A"/>
      <rect x="50" y="111" width="8" height="6" rx="1" fill="#FEF08A"/>
      <rect x="76" y="111" width="6" height="6" rx="1" fill="#FEF08A"/>

      <!-- Tower 3 Stepped Roof -->
      <polygon points="96,80 110,60 134,60 148,80" fill="var(--city-building-3, #4F46E5)"/>
      <rect x="96" y="80" width="52" height="110" rx="2" fill="var(--city-building-3, #4F46E5)"/>
      <rect x="104" y="92" width="7" height="7" rx="1" fill="#FEF08A"/>
      <rect x="118" y="92" width="7" height="7" rx="1" fill="#38BDF8"/>
      <rect x="132" y="92" width="7" height="7" rx="1" fill="#FEF08A"/>
      <rect x="104" y="108" width="7" height="7" rx="1" fill="#FEF08A"/>
      <rect x="118" y="108" width="7" height="7" rx="1" fill="#FEF08A"/>
      <rect x="132" y="108" width="7" height="7" rx="1" fill="#38BDF8"/>
      <rect x="104" y="124" width="7" height="7" rx="1" fill="#38BDF8"/>
      <rect x="118" y="124" width="7" height="7" rx="1" fill="#FEF08A"/>
      <rect x="132" y="124" width="7" height="7" rx="1" fill="#FEF08A"/>

      <!-- Tower 4 Glass Prism -->
      <rect x="156" y="55" width="40" height="135" rx="2" fill="var(--city-building-1, #4338CA)"/>
      <polygon points="156,55 176,30 196,55" fill="var(--city-building-1, #4338CA)"/>
      <line x1="176" y1="18" x2="176" y2="30" stroke="var(--city-spire-color, #818CF8)" stroke-width="2"/>
      <circle cx="176" cy="18" r="2.5" fill="#EF4444" class="beacon-light"/>
      <rect x="164" y="68" width="8" height="10" rx="1" fill="#38BDF8"/>
      <rect x="180" y="68" width="8" height="10" rx="1" fill="#FEF08A"/>
      <rect x="164" y="86" width="8" height="10" rx="1" fill="#FEF08A"/>
      <rect x="180" y="86" width="8" height="10" rx="1" fill="#38BDF8"/>
      <rect x="164" y="104" width="8" height="10" rx="1" fill="#38BDF8"/>
      <rect x="180" y="104" width="8" height="10" rx="1" fill="#FEF08A"/>

      <!-- Tower 5 Broad Commercial -->
      <rect x="204" y="85" width="58" height="105" rx="2" fill="var(--city-building-2, #3730A3)"/>
      <rect x="214" y="98" width="10" height="6" rx="1" fill="#FEF08A"/>
      <rect x="232" y="98" width="10" height="6" rx="1" fill="#FEF08A"/>
      <rect x="248" y="98" width="8" height="6" rx="1" fill="#38BDF8"/>
      <rect x="214" y="114" width="10" height="6" rx="1" fill="#38BDF8"/>
      <rect x="232" y="114" width="10" height="6" rx="1" fill="#FEF08A"/>
      <rect x="248" y="114" width="8" height="6" rx="1" fill="#FEF08A"/>

      <!-- Tower 6 Spire Pinnacle -->
      <rect x="270" y="65" width="36" height="125" rx="2" fill="var(--city-building-3, #4F46E5)"/>
      <line x1="288" y1="38" x2="288" y2="65" stroke="var(--city-spire-color, #818CF8)" stroke-width="2"/>
      <circle cx="288" cy="38" r="2.5" fill="#EF4444" class="beacon-light"/>
      <rect x="278" y="80" width="7" height="8" rx="1" fill="#FEF08A"/>
      <rect x="292" y="80" width="7" height="8" rx="1" fill="#FEF08A"/>
      <rect x="278" y="98" width="7" height="8" rx="1" fill="#38BDF8"/>
      <rect x="292" y="98" width="7" height="8" rx="1" fill="#FEF08A"/>
      <rect x="278" y="116" width="7" height="8" rx="1" fill="#FEF08A"/>
      <rect x="292" y="116" width="7" height="8" rx="1" fill="#38BDF8"/>
    </g>
  </g>

  <!-- ========================================================
       LAYER 5: MID MOUNTAIN RIDGES & ROLLING GREEN HILLS
       ======================================================== -->
  <g class="world-layer-mid-hills">
    <!-- Mid Mountain Ridge (Blue/Violet #60A5FA, #818CF8) -->
    <path class="mountain-silhouette mount-mid" d="M -100 550 Q 180 380 480 470 Q 780 340 1080 460 Q 1420 330 1740 480 Q 1920 400 2050 510 L 2050 780 L -100 780 Z" fill="url(#mountMidGrad)"/>

    <!-- Rolling Green Hill 1 (Back Hills #84CC16, #22C55E) -->
    <path class="hill-shape hill-back" d="M -100 640 Q 240 510 680 610 Q 1120 490 1520 620 Q 1840 530 2050 630 L 2050 950 L -100 950 Z" fill="url(#hillBackGrad)"/>

    <!-- Winding Valley River in sparkling cyan -->
    <path class="river-body" d="M -100 840 Q 320 810 720 860 Q 1120 900 1520 860 Q 1820 830 2050 880 L 2050 940 Q 1820 890 1520 920 Q 1120 960 720 920 Q 320 870 -100 900 Z" fill="url(#riverWaterGrad)"/>
    <!-- Animated River Ripple Lines -->
    <path class="river-ripple ripple-1" d="M 120 865 Q 280 850 450 870" stroke="rgba(255, 255, 255, 0.6)" stroke-width="2" stroke-linecap="round" fill="none"/>
    <path class="river-ripple ripple-2" d="M 680 890 Q 860 910 1040 895" stroke="rgba(255, 255, 255, 0.55)" stroke-width="2" stroke-linecap="round" fill="none"/>
    <path class="river-ripple ripple-3" d="M 1320 885 Q 1500 860 1680 880" stroke="rgba(255, 255, 255, 0.6)" stroke-width="2" stroke-linecap="round" fill="none"/>

    <!-- Rolling Green Hill 2 (Foreground Lush Meadow #4ADE80, #22C55E, #15803D) -->
    <path class="hill-shape hill-front" d="M -100 750 Q 280 660 760 770 Q 1240 680 1680 790 Q 1920 720 2050 780 L 2050 1100 L -100 1100 Z" fill="url(#hillFrontGrad)"/>
  </g>

  <!-- ========================================================
       LAYER 6: CLUSTERED TREES & SCENIC VEGETATION
       ======================================================== -->
  <g class="world-layer-trees">
    <!-- Left Hill Tree Cluster (Conical Pines & Rounded Oaks) -->
    <g class="tree-group tree-cluster-left" transform="translate(180, 580)">
      <!-- Pine 1 -->
      <polygon points="0,0 -12,24 12,24" fill="#15803D"/>
      <polygon points="0,-12 -10,12 10,12" fill="#16A34A"/>
      <polygon points="0,-22 -7,0 7,0" fill="#22C55E"/>
      <rect x="-2" y="24" width="4" height="8" fill="#78350F"/>
      <!-- Oak 1 -->
      <circle cx="28" cy="10" r="16" fill="#16A34A"/>
      <circle cx="24" cy="2" r="12" fill="#22C55E"/>
      <circle cx="34" cy="2" r="11" fill="#4ADE80"/>
      <rect x="26" y="24" width="4" height="8" fill="#78350F"/>
      <!-- Pine 2 -->
      <polygon points="56,6 46,26 66,26" fill="#15803D"/>
      <polygon points="56,-4 47,14 65,14" fill="#22C55E"/>
      <rect x="54" y="26" width="4" height="6" fill="#78350F"/>
    </g>

    <!-- Central Ridge Tree Cluster -->
    <g class="tree-group tree-cluster-mid" transform="translate(710, 680)">
      <circle cx="0" cy="0" r="18" fill="#15803D"/>
      <circle cx="-6" cy="-8" r="14" fill="#22C55E"/>
      <circle cx="6" cy="-8" r="13" fill="#4ADE80"/>
      <rect x="-3" y="16" width="6" height="10" fill="#78350F"/>
      <polygon points="32,-2 20,20 44,20" fill="#15803D"/>
      <polygon points="32,-14 22,6 42,6" fill="#22C55E"/>
      <polygon points="32,-24 25,-4 39,-4" fill="#4ADE80"/>
      <rect x="30" y="20" width="4" height="8" fill="#78350F"/>
      <circle cx="62" cy="4" r="15" fill="#16A34A"/>
      <circle cx="60" cy="-4" r="12" fill="#84CC16"/>
      <rect x="60" y="18" width="4" height="8" fill="#78350F"/>
    </g>

    <!-- Right Riverbank Tree Cluster -->
    <g class="tree-group tree-cluster-right" transform="translate(1580, 710)">
      <polygon points="0,0 -14,26 14,26" fill="#15803D"/>
      <polygon points="0,-14 -11,10 11,10" fill="#16A34A"/>
      <polygon points="0,-26 -8,-2 8,-2" fill="#22C55E"/>
      <rect x="-3" y="26" width="6" height="8" fill="#78350F"/>
      <circle cx="34" cy="8" r="18" fill="#16A34A"/>
      <circle cx="30" cy="-2" r="14" fill="#22C55E"/>
      <circle cx="42" cy="-1" r="13" fill="#84CC16"/>
      <rect x="31" y="24" width="6" height="10" fill="#78350F"/>
      <polygon points="68,6 56,28 80,28" fill="#15803D"/>
      <polygon points="68,-6 58,14 78,14" fill="#22C55E"/>
      <rect x="66" y="28" width="4" height="8" fill="#78350F"/>
    </g>
  </g>

  <!-- ========================================================
       LAYER 7: ELEVATED RAILWAY VIADUCT & SUPPORT PILLARS
       ======================================================== -->
  <g class="world-layer-elevated-viaduct">
    <!-- Elevated Viaduct Deck (x: -100 to 2050, y: 340) -->
    <!-- Support Pillars -->
    <g class="viaduct-pillars">
      <rect x="120" y="348" width="28" height="130" rx="3" fill="url(#viaductDeckGrad)"/>
      <rect x="360" y="348" width="28" height="160" rx="3" fill="url(#viaductDeckGrad)"/>
      <rect x="600" y="348" width="28" height="175" rx="3" fill="url(#viaductDeckGrad)"/>
      <rect x="840" y="348" width="28" height="170" rx="3" fill="url(#viaductDeckGrad)"/>
      <rect x="1080" y="348" width="28" height="165" rx="3" fill="url(#viaductDeckGrad)"/>
      <rect x="1320" y="348" width="28" height="150" rx="3" fill="url(#viaductDeckGrad)"/>
      <rect x="1560" y="348" width="28" height="160" rx="3" fill="url(#viaductDeckGrad)"/>
      <rect x="1800" y="348" width="28" height="140" rx="3" fill="url(#viaductDeckGrad)"/>
    </g>

    <!-- Viaduct Arches & Deck Beam -->
    <path d="M -100 348 L 2050 348 L 2050 364 L -100 364 Z" fill="url(#viaductDeckGrad)"/>
    <!-- Guard Railing -->
    <line x1="-100" y1="338" x2="2050" y2="338" stroke="var(--border-medium, #94A3B8)" stroke-width="2"/>
    <line x1="-100" y1="334" x2="2050" y2="334" stroke="var(--border-subtle, #CBD5E1)" stroke-width="1.5"/>

    <!-- Elevated Track Rails & Ties -->
    <line x1="-100" y1="344" x2="2050" y2="344" stroke="#475569" stroke-width="2"/>
    <line x1="-100" y1="347" x2="2050" y2="347" stroke="#334155" stroke-width="2"/>
    <line x1="-100" y1="345" x2="2050" y2="345" stroke="#64748B" stroke-dasharray="2, 12" stroke-width="6"/>

    <!-- TRAIN 4: Cyan Metro Train on Elevated Viaduct (Moving Left -> Right, 75s) -->
    <g class="train-unit train-elevated-metro" id="train-elevated-viaduct">
      <!-- Headlight Cone -->
      <polygon points="140,-8 260,-22 260,6 140,-2" fill="url(#headlightBeamR)"/>
      <!-- Cab Car -->
      <path d="M 0,-16 L 120,-16 Q 142,-16 148,-5 L 148,-2 L 0,-2 Z" fill="#0891B2" stroke="#06B6D4" stroke-width="1.2"/>
      <rect x="16" y="-13" width="16" height="5" rx="1.5" fill="#E0F2FE"/>
      <rect x="38" y="-13" width="16" height="5" rx="1.5" fill="#E0F2FE"/>
      <rect x="60" y="-13" width="16" height="5" rx="1.5" fill="#E0F2FE"/>
      <rect x="82" y="-13" width="16" height="5" rx="1.5" fill="#E0F2FE"/>
      <path d="M 104,-13 L 126,-13 Q 134,-13 138,-8 L 104,-8 Z" fill="#38BDF8"/>
      <!-- AC Pods on Roof -->
      <rect x="30" y="-19" width="30" height="3" rx="1" fill="#0E7490"/>
      <rect x="80" y="-19" width="30" height="3" rx="1" fill="#0E7490"/>
      <!-- Coupler -->
      <rect x="-10" y="-8" width="10" height="3" fill="#334155"/>
      <!-- Coach 2 -->
      <rect x="-115" y="-16" width="105" height="14" rx="2" fill="#0891B2" stroke="#06B6D4" stroke-width="1.2"/>
      <rect x="-105" y="-13" width="16" height="5" rx="1.5" fill="#E0F2FE"/>
      <rect x="-83" y="-13" width="16" height="5" rx="1.5" fill="#E0F2FE"/>
      <rect x="-61" y="-13" width="16" height="5" rx="1.5" fill="#E0F2FE"/>
      <rect x="-39" y="-13" width="16" height="5" rx="1.5" fill="#E0F2FE"/>
      <rect x="-85" y="-19" width="35" height="3" rx="1" fill="#0E7490"/>
      <!-- Wheels -->
      <circle cx="24" cy="-1" r="2.5" fill="#1E293B"/>
      <circle cx="44" cy="-1" r="2.5" fill="#1E293B"/>
      <circle cx="110" cy="-1" r="2.5" fill="#1E293B"/>
      <circle cx="130" cy="-1" r="2.5" fill="#1E293B"/>
      <circle cx="-95" cy="-1" r="2.5" fill="#1E293B"/>
      <circle cx="-75" cy="-1" r="2.5" fill="#1E293B"/>
      <circle cx="-35" cy="-1" r="2.5" fill="#1E293B"/>
      <circle cx="-15" cy="-1" r="2.5" fill="#1E293B"/>
    </g>
  </g>

  <!-- ========================================================
       LAYER 8: STATIONS & GLOWING STATION MARKERS
       ======================================================== -->
  <g class="world-layer-stations">
    <!-- Station 1: Grand Central Terminal Hub (x: 480, y: 590) -->
    <g class="railway-station station-central" transform="translate(480, 550)">
      <!-- Arched Glass Vault Canopy -->
      <path d="M -75 40 Q 0 -15 75 40 L 75 52 L -75 52 Z" fill="url(#canopyGlass)" stroke="var(--accent-cyan, #38BDF8)" stroke-width="1.8"/>
      <!-- Roof Truss Ribs -->
      <path d="M -45 22 Q 0 0 45 22" stroke="rgba(255, 255, 255, 0.6)" stroke-width="1.5" fill="none"/>
      <line x1="-75" y1="40" x2="-75" y2="65" stroke="var(--border-strong, #64748B)" stroke-width="3"/>
      <line x1="75" y1="40" x2="75" y2="65" stroke="var(--border-strong, #64748B)" stroke-width="3"/>
      <!-- Platform Base & Warm Lighting -->
      <rect x="-85" y="60" width="170" height="12" rx="2" fill="var(--bg-card, #1E293B)" stroke="var(--border-medium, #94A3B8)" stroke-width="1"/>
      <rect x="-70" y="55" width="140" height="3" fill="#FEF08A" opacity="0.8"/>
      <!-- Station Signboard -->
      <rect x="-35" y="18" width="70" height="16" rx="3" fill="#0284C7" stroke="#38BDF8" stroke-width="1"/>
      <text x="0" y="30" font-family="'Plus Jakarta Sans', sans-serif" font-size="9" font-weight="800" fill="#FFFFFF" text-anchor="middle" letter-spacing="1">CENTRAL</text>

      <!-- Pulsing Station Location Marker Pin (📍) -->
      <g class="station-pin pin-pulse" transform="translate(0, -32)">
        <circle cx="0" cy="0" r="14" fill="rgba(56, 189, 248, 0.25)" class="pin-halo"/>
        <path d="M 0 10 C -6 2 -9 -3 -9 -8 C -9 -14 -4 -18 0 -18 C 4 -18 9 -14 9 -8 C 9 -3 6 2 0 10 Z" fill="#EF4444" stroke="#FFFFFF" stroke-width="1.5"/>
        <circle cx="0" cy="-8" r="3.5" fill="#FFFFFF"/>
      </g>
    </g>

    <!-- Station 2: Mountain View Junction (x: 1380, y: 500) -->
    <g class="railway-station station-mountain" transform="translate(1380, 480)">
      <!-- Alpine Station Chalet Roof -->
      <polygon points="0,0 -50,30 50,30" fill="#6366F1" stroke="#818CF8" stroke-width="1.5"/>
      <rect x="-40" y="30" width="80" height="35" rx="2" fill="var(--bg-card, #1E293B)" stroke="var(--border-medium, #94A3B8)"/>
      <rect x="-30" y="38" width="14" height="16" rx="2" fill="#FEF08A"/>
      <rect x="16" y="38" width="14" height="16" rx="2" fill="#38BDF8"/>
      <!-- Pedestrian Overpass Bridge -->
      <path d="M 40 40 L 90 40 L 90 65 L 82 65 L 82 48 L 40 48 Z" fill="var(--viaductDeckGrad)"/>
      <!-- Station Platform -->
      <rect x="-65" y="65" width="165" height="10" rx="2" fill="var(--bg-card, #1E293B)"/>
      <!-- Station Signboard -->
      <rect x="-32" y="16" width="64" height="14" rx="2" fill="#4F46E5" stroke="#A78BFA" stroke-width="1"/>
      <text x="0" y="27" font-family="'Plus Jakarta Sans', sans-serif" font-size="8" font-weight="800" fill="#FFFFFF" text-anchor="middle" letter-spacing="0.8">JUNCTION</text>

      <!-- Pulsing Pin Marker -->
      <g class="station-pin pin-pulse" transform="translate(0, -20)">
        <circle cx="0" cy="0" r="14" fill="rgba(99, 102, 241, 0.25)" class="pin-halo"/>
        <path d="M 0 10 C -6 2 -9 -3 -9 -8 C -9 -14 -4 -18 0 -18 C 4 -18 9 -14 9 -8 C 9 -3 6 2 0 10 Z" fill="#F59E0B" stroke="#FFFFFF" stroke-width="1.5"/>
        <circle cx="0" cy="-8" r="3.5" fill="#FFFFFF"/>
      </g>
    </g>

    <!-- Station 3: Riverside Terminal (x: 1040, y: 780) -->
    <g class="railway-station station-riverside" transform="translate(1040, 770)">
      <!-- Modern Curved Canopy -->
      <path d="M -60 20 Q 0 0 60 20 L 50 30 L -50 30 Z" fill="#0284C7" stroke="#38BDF8" stroke-width="1.5"/>
      <line x1="-50" y1="30" x2="-50" y2="48" stroke="#64748B" stroke-width="2.5"/>
      <line x1="50" y1="30" x2="50" y2="48" stroke="#64748B" stroke-width="2.5"/>
      <rect x="-70" y="48" width="140" height="10" rx="2" fill="var(--bg-card, #1E293B)"/>
      <rect x="-25" y="10" width="50" height="12" rx="2" fill="#0369A1" stroke="#38BDF8" stroke-width="0.8"/>
      <text x="0" y="19" font-family="'Plus Jakarta Sans', sans-serif" font-size="7.5" font-weight="800" fill="#FFFFFF" text-anchor="middle">RIVERSIDE</text>

      <!-- Pulsing Pin Marker -->
      <g class="station-pin pin-pulse" transform="translate(0, -14)">
        <circle cx="0" cy="0" r="12" fill="rgba(14, 165, 233, 0.25)" class="pin-halo"/>
        <path d="M 0 8 C -5 2 -7 -2 -7 -6 C -7 -11 -3 -15 0 -15 C 3 -15 7 -11 7 -6 C 7 -2 5 2 0 8 Z" fill="#10B981" stroke="#FFFFFF" stroke-width="1.2"/>
        <circle cx="0" cy="-6" r="2.8" fill="#FFFFFF"/>
      </g>
    </g>
  </g>

  <!-- ========================================================
       LAYER 9: RAILWAY TRACK NETWORK (CURVED, ELEVATED, GROUND)
       ======================================================== -->
  <g class="world-layer-tracks">
    <!-- Track 1: Upper Mountain Route (Curved & Sweeping at y: 490) -->
    <path d="M -100 486 Q 380 430 820 486 Q 1240 540 2050 496" stroke="#475569" stroke-width="2" fill="none"/>
    <path d="M -100 494 Q 380 438 820 494 Q 1240 548 2050 504" stroke="#334155" stroke-width="2" fill="none"/>
    <path d="M -100 490 Q 380 434 820 490 Q 1240 544 2050 500" stroke="#64748B" stroke-dasharray="2, 14" stroke-width="8" fill="none"/>

    <!-- Track 2: Mid Trunk Main Express Route (Double Track at y: 620) -->
    <line x1="-100" y1="616" x2="2050" y2="616" stroke="#475569" stroke-width="2.2"/>
    <line x1="-100" y1="624" x2="2050" y2="624" stroke="#334155" stroke-width="2.2"/>
    <line x1="-100" y1="620" x2="2050" y2="620" stroke="#64748B" stroke-dasharray="2, 14" stroke-width="8"/>

    <!-- Track 2B: Second Line on Mid Trunk Corridor (y: 642) -->
    <line x1="-100" y1="638" x2="2050" y2="638" stroke="#475569" stroke-width="2.2"/>
    <line x1="-100" y1="646" x2="2050" y2="646" stroke="#334155" stroke-width="2.2"/>
    <line x1="-100" y1="642" x2="2050" y2="642" stroke="#64748B" stroke-dasharray="2, 14" stroke-width="8"/>

    <!-- Track 3: Lower Scenic River Route (y: 840) -->
    <path d="M -100 836 Q 420 816 880 846 Q 1380 876 2050 836" stroke="#475569" stroke-width="2.2" fill="none"/>
    <path d="M -100 844 Q 420 824 880 854 Q 1380 884 2050 844" stroke="#334155" stroke-width="2.2" fill="none"/>
    <path d="M -100 840 Q 420 820 880 850 Q 1380 880 2050 840" stroke="#64748B" stroke-dasharray="2, 14" stroke-width="8" fill="none"/>

    <!-- Connecting Junction Crossover Switch -->
    <path d="M 320 620 Q 450 560 620 490" stroke="#475569" stroke-width="1.8" stroke-dasharray="2, 10" fill="none"/>
    <path d="M 1180 620 Q 1320 720 1480 840" stroke="#475569" stroke-width="1.8" stroke-dasharray="2, 10" fill="none"/>
  </g>

  <!-- ========================================================
       LAYER 10: RAILWAY SIGNALS (CYCLING RED / YELLOW / GREEN)
       ======================================================== -->
  <g class="world-layer-signals">
    <!-- Signal Mast 1 (Track 2 Westbound, x: 380, y: 595) -->
    <g class="signal-mast mast-1" transform="translate(380, 580)">
      <line x1="0" y1="0" x2="0" y2="35" stroke="#475569" stroke-width="2.5"/>
      <rect x="-5" y="-12" width="10" height="24" rx="2" fill="#0F172A" stroke="#475569" stroke-width="1"/>
      <circle class="signal-lamp lamp-red" cx="0" cy="-6" r="2.8"/>
      <circle class="signal-lamp lamp-yellow" cx="0" cy="0" r="2.8"/>
      <circle class="signal-lamp lamp-green" cx="0" cy="6" r="2.8"/>
    </g>

    <!-- Signal Mast 2 (Track 2 Eastbound, x: 780, y: 595) -->
    <g class="signal-mast mast-2" transform="translate(780, 580)">
      <line x1="0" y1="0" x2="0" y2="35" stroke="#475569" stroke-width="2.5"/>
      <rect x="-5" y="-12" width="10" height="24" rx="2" fill="#0F172A" stroke="#475569" stroke-width="1"/>
      <circle class="signal-lamp lamp-red" cx="0" cy="-6" r="2.8"/>
      <circle class="signal-lamp lamp-yellow" cx="0" cy="0" r="2.8"/>
      <circle class="signal-lamp lamp-green" cx="0" cy="6" r="2.8"/>
    </g>

    <!-- Signal Mast 3 (Mountain Track, x: 1260, y: 465) -->
    <g class="signal-mast mast-3" transform="translate(1260, 455)">
      <line x1="0" y1="0" x2="0" y2="30" stroke="#475569" stroke-width="2.5"/>
      <rect x="-5" y="-12" width="10" height="24" rx="2" fill="#0F172A" stroke="#475569" stroke-width="1"/>
      <circle class="signal-lamp lamp-red" cx="0" cy="-6" r="2.8"/>
      <circle class="signal-lamp lamp-yellow" cx="0" cy="0" r="2.8"/>
      <circle class="signal-lamp lamp-green" cx="0" cy="6" r="2.8"/>
    </g>

    <!-- Signal Mast 4 (River Track, x: 920, y: 815) -->
    <g class="signal-mast mast-4" transform="translate(920, 805)">
      <line x1="0" y1="0" x2="0" y2="30" stroke="#475569" stroke-width="2.5"/>
      <rect x="-5" y="-12" width="10" height="24" rx="2" fill="#0F172A" stroke="#475569" stroke-width="1"/>
      <circle class="signal-lamp lamp-red" cx="0" cy="-6" r="2.8"/>
      <circle class="signal-lamp lamp-yellow" cx="0" cy="0" r="2.8"/>
      <circle class="signal-lamp lamp-green" cx="0" cy="6" r="2.8"/>
    </g>
  </g>

  <!-- ========================================================
       LAYER 11: GLOWING ROUTE LINES & TELEMETRY PARTICLES
       ======================================================== -->
  <g class="world-layer-route-glow">
    <!-- Animated Glowing Route Corridor 1 (Cyan) -->
    <path class="route-glow-line route-cyan" d="M -100 620 L 480 620 L 1040 620 L 2050 620"/>
    <!-- Animated Glowing Route Corridor 2 (Pink/Magenta) -->
    <path class="route-glow-line route-pink" d="M -100 490 Q 380 434 820 490 Q 1240 544 2050 500"/>
    <!-- Animated Glowing Route Corridor 3 (Violet/Sky) -->
    <path class="route-glow-line route-violet" d="M -100 840 Q 420 820 880 850 Q 1380 880 2050 840"/>

    <!-- Glowing Telemetry Packets / Particles (24 particles traveling along routes) -->
    <g class="route-particles-group">
      <circle class="route-particle part-c1" r="3.5" fill="#38BDF8"/>
      <circle class="route-particle part-c2" r="3" fill="#38BDF8"/>
      <circle class="route-particle part-c3" r="3.5" fill="#38BDF8"/>
      <circle class="route-particle part-c4" r="3" fill="#38BDF8"/>
      <circle class="route-particle part-c5" r="3.5" fill="#38BDF8"/>
      <circle class="route-particle part-c6" r="3" fill="#38BDF8"/>

      <circle class="route-particle part-p1" r="3.5" fill="#F472B6"/>
      <circle class="route-particle part-p2" r="3" fill="#F472B6"/>
      <circle class="route-particle part-p3" r="3.5" fill="#F472B6"/>
      <circle class="route-particle part-p4" r="3" fill="#F472B6"/>
      <circle class="route-particle part-p5" r="3.5" fill="#F472B6"/>
      <circle class="route-particle part-p6" r="3" fill="#F472B6"/>

      <circle class="route-particle part-v1" r="3.5" fill="#A78BFA"/>
      <circle class="route-particle part-v2" r="3" fill="#A78BFA"/>
      <circle class="route-particle part-v3" r="3.5" fill="#A78BFA"/>
      <circle class="route-particle part-v4" r="3" fill="#A78BFA"/>

      <!-- Ambient Sky Sparkles (✦, ✧) -->
      <text x="320" y="180" class="ambient-sparkle sp-1" fill="#FEF08A" font-size="14">✦</text>
      <text x="640" y="240" class="ambient-sparkle sp-2" fill="#38BDF8" font-size="12">✧</text>
      <text x="1120" y="160" class="ambient-sparkle sp-3" fill="#F472B6" font-size="15">✦</text>
      <text x="1420" y="220" class="ambient-sparkle sp-4" fill="#A78BFA" font-size="11">✧</text>
      <text x="1750" y="150" class="ambient-sparkle sp-5" fill="#FEF08A" font-size="14">✦</text>
      <text x="860" y="200" class="ambient-sparkle sp-6" fill="#38BDF8" font-size="10">✧</text>
    </g>
  </g>

  <!-- ========================================================
       LAYER 12: 5 DISTINCT MOVING TRAINS (VARIOUS SPEEDS & DIRECTIONS)
       ======================================================== -->
  <g class="world-layer-trains">
    <!-- --------------------------------------------------------
         TRAIN 1: BLUE FUTURISTIC BULLET EXPRESS (Left -> Right, 35s)
         Route: Mid Trunk Express Route (y: 620)
         -------------------------------------------------------- -->
    <g class="train-unit train-blue-express" id="train-track-express">
      <!-- Headlight Beam Cone -->
      <polygon points="170,-8 320,-24 320,8 170,-2" fill="url(#headlightBeamR)"/>
      <!-- Aerodynamic Locomotive -->
      <path d="M 0,-17 L 135,-17 Q 165,-17 172,-4 L 172,-1 L 0,-1 Z" fill="#1E3A8A" stroke="#0284C7" stroke-width="1.2"/>
      <path d="M 120,-17 L 148,-17 Q 158,-17 162,-8 L 120,-8 Z" fill="#38BDF8"/>
      <!-- Windows -->
      <rect x="20" y="-13" width="18" height="5" rx="1.5" fill="#38BDF8"/>
      <rect x="46" y="-13" width="18" height="5" rx="1.5" fill="#38BDF8"/>
      <rect x="72" y="-13" width="18" height="5" rx="1.5" fill="#38BDF8"/>
      <rect x="98" y="-13" width="18" height="5" rx="1.5" fill="#38BDF8"/>
      <!-- White Speed Stripe -->
      <line x1="0" y1="-6" x2="168" y2="-6" stroke="#FFFFFF" stroke-width="1.8"/>
      <circle cx="170" cy="-3" r="2" fill="#FEF08A"/>
      <!-- Roof Pantograph -->
      <path d="M 40,-17 L 50,-24 L 62,-17" stroke="#38BDF8" stroke-width="1.5" fill="none"/>
      <!-- Coupler -->
      <rect x="-10" y="-8" width="10" height="3" fill="#334155"/>
      <!-- Coach 1 -->
      <rect x="-125" y="-17" width="115" height="16" rx="2" fill="#1E3A8A" stroke="#0284C7" stroke-width="1.2"/>
      <line x1="-125" y1="-6" x2="-10" y2="-6" stroke="#FFFFFF" stroke-width="1.8"/>
      <rect x="-115" y="-13" width="16" height="5" rx="1.5" fill="#38BDF8"/>
      <rect x="-92" y="-13" width="16" height="5" rx="1.5" fill="#38BDF8"/>
      <rect x="-69" y="-13" width="16" height="5" rx="1.5" fill="#38BDF8"/>
      <rect x="-46" y="-13" width="16" height="5" rx="1.5" fill="#38BDF8"/>
      <rect x="-24" y="-13" width="10" height="5" rx="1.5" fill="#38BDF8"/>
      <!-- Coupler -->
      <rect x="-135" y="-8" width="10" height="3" fill="#334155"/>
      <!-- Coach 2 -->
      <rect x="-250" y="-17" width="115" height="16" rx="2" fill="#1E3A8A" stroke="#0284C7" stroke-width="1.2"/>
      <line x1="-250" y1="-6" x2="-135" y2="-6" stroke="#FFFFFF" stroke-width="1.8"/>
      <rect x="-240" y="-13" width="16" height="5" rx="1.5" fill="#38BDF8"/>
      <rect x="-217" y="-13" width="16" height="5" rx="1.5" fill="#38BDF8"/>
      <rect x="-194" y="-13" width="16" height="5" rx="1.5" fill="#38BDF8"/>
      <rect x="-171" y="-13" width="16" height="5" rx="1.5" fill="#38BDF8"/>
      <rect x="-148" y="-13" width="10" height="5" rx="1.5" fill="#38BDF8"/>
      <!-- Bogie Wheels -->
      <circle cx="25" cy="0" r="2.8" fill="#0F172A"/>
      <circle cx="48" cy="0" r="2.8" fill="#0F172A"/>
      <circle cx="120" cy="0" r="2.8" fill="#0F172A"/>
      <circle cx="145" cy="0" r="2.8" fill="#0F172A"/>
      <circle cx="-100" cy="0" r="2.8" fill="#0F172A"/>
      <circle cx="-75" cy="0" r="2.8" fill="#0F172A"/>
      <circle cx="-225" cy="0" r="2.8" fill="#0F172A"/>
      <circle cx="-200" cy="0" r="2.8" fill="#0F172A"/>
    </g>

    <!-- --------------------------------------------------------
         TRAIN 2: CRIMSON & ORANGE INTERCITY (Right -> Left, 50s)
         Route: Lower Scenic Route (y: 840)
         -------------------------------------------------------- -->
    <g class="train-unit train-red-passenger" id="train-track-scenic">
      <!-- Headlight Beam Cone pointing Left -->
      <polygon points="-170,-8 -310,-24 -310,8 -170,-2" fill="url(#headlightBeamL)"/>
      <!-- Locomotive facing Left -->
      <path d="M 0,-17 L -135,-17 Q -165,-17 -172,-4 L -172,-1 L 0,-1 Z" fill="#DC2626" stroke="#F97316" stroke-width="1.2"/>
      <path d="M -120,-17 L -148,-17 Q -158,-17 -162,-8 L -120,-8 Z" fill="#FEF08A"/>
      <!-- Windows -->
      <rect x="-38" y="-13" width="18" height="5" rx="1.5" fill="#FEF08A"/>
      <rect x="-64" y="-13" width="18" height="5" rx="1.5" fill="#FEF08A"/>
      <rect x="-90" y="-13" width="18" height="5" rx="1.5" fill="#FEF08A"/>
      <rect x="-116" y="-13" width="18" height="5" rx="1.5" fill="#FEF08A"/>
      <!-- Orange Roof Stripe -->
      <line x1="0" y1="-15" x2="-140" y2="-15" stroke="#F97316" stroke-width="2.5"/>
      <circle cx="-170" cy="-3" r="2" fill="#FEF08A"/>
      <!-- Coupler -->
      <rect x="0" y="-8" width="10" height="3" fill="#334155"/>
      <!-- Coach 1 -->
      <rect x="10" y="-17" width="115" height="16" rx="2" fill="#DC2626" stroke="#F97316" stroke-width="1.2"/>
      <line x1="10" y1="-15" x2="125" y2="-15" stroke="#F97316" stroke-width="2.5"/>
      <rect x="20" y="-13" width="16" height="5" rx="1.5" fill="#FEF08A"/>
      <rect x="42" y="-13" width="16" height="5" rx="1.5" fill="#FEF08A"/>
      <rect x="64" y="-13" width="16" height="5" rx="1.5" fill="#FEF08A"/>
      <rect x="86" y="-13" width="16" height="5" rx="1.5" fill="#FEF08A"/>
      <rect x="108" y="-13" width="10" height="5" rx="1.5" fill="#FEF08A"/>
      <!-- Coupler -->
      <rect x="125" y="-8" width="10" height="3" fill="#334155"/>
      <!-- Coach 2 -->
      <rect x="135" y="-17" width="115" height="16" rx="2" fill="#DC2626" stroke="#F97316" stroke-width="1.2"/>
      <line x1="135" y1="-15" x2="250" y2="-15" stroke="#F97316" stroke-width="2.5"/>
      <rect x="145" y="-13" width="16" height="5" rx="1.5" fill="#FEF08A"/>
      <rect x="167" y="-13" width="16" height="5" rx="1.5" fill="#FEF08A"/>
      <rect x="189" y="-13" width="16" height="5" rx="1.5" fill="#FEF08A"/>
      <rect x="211" y="-13" width="16" height="5" rx="1.5" fill="#FEF08A"/>
      <!-- Wheels -->
      <circle cx="-25" cy="0" r="2.8" fill="#0F172A"/>
      <circle cx="-48" cy="0" r="2.8" fill="#0F172A"/>
      <circle cx="-120" cy="0" r="2.8" fill="#0F172A"/>
      <circle cx="-145" cy="0" r="2.8" fill="#0F172A"/>
      <circle cx="35" cy="0" r="2.8" fill="#0F172A"/>
      <circle cx="60" cy="0" r="2.8" fill="#0F172A"/>
      <circle cx="160" cy="0" r="2.8" fill="#0F172A"/>
      <circle cx="185" cy="0" r="2.8" fill="#0F172A"/>
    </g>

    <!-- --------------------------------------------------------
         TRAIN 3: PURPLE & PINK MOUNTAIN HIGH-SPEED (Left -> Right along Curve, 65s)
         Route: Mountain Route (y: 490)
         -------------------------------------------------------- -->
    <g class="train-unit train-purple-express" id="train-track-mountain">
      <!-- Headlight Cone -->
      <polygon points="140,-7 260,-20 260,6 140,-2" fill="url(#headlightBeamR)"/>
      <!-- Locomotive -->
      <path d="M 0,-15 L 115,-15 Q 138,-15 142,-3 L 142,-1 L 0,-1 Z" fill="#6B21A8" stroke="#EC4899" stroke-width="1.2"/>
      <path d="M 100,-15 L 122,-15 Q 130,-15 134,-6 L 100,-6 Z" fill="#E879F9"/>
      <!-- Pink Accents -->
      <line x1="0" y1="-5" x2="138" y2="-5" stroke="#F43F5E" stroke-width="2"/>
      <!-- Windows -->
      <rect x="18" y="-12" width="16" height="4.5" rx="1" fill="#C084FC"/>
      <rect x="42" y="-12" width="16" height="4.5" rx="1" fill="#C084FC"/>
      <rect x="66" y="-12" width="16" height="4.5" rx="1" fill="#C084FC"/>
      <!-- Coupler -->
      <rect x="-8" y="-7" width="8" height="3" fill="#334155"/>
      <!-- Coach 1 -->
      <rect x="-105" y="-15" width="97" height="14" rx="2" fill="#6B21A8" stroke="#EC4899" stroke-width="1.2"/>
      <line x1="-105" y1="-5" x2="-8" y2="-5" stroke="#F43F5E" stroke-width="2"/>
      <rect x="-95" y="-12" width="14" height="4.5" rx="1" fill="#C084FC"/>
      <rect x="-74" y="-12" width="14" height="4.5" rx="1" fill="#C084FC"/>
      <rect x="-53" y="-12" width="14" height="4.5" rx="1" fill="#C084FC"/>
      <rect x="-32" y="-12" width="14" height="4.5" rx="1" fill="#C084FC"/>
      <!-- Wheels -->
      <circle cx="25" cy="0" r="2.5" fill="#1E1B4B"/>
      <circle cx="105" cy="0" r="2.5" fill="#1E1B4B"/>
      <circle cx="-80" cy="0" r="2.5" fill="#1E1B4B"/>
      <circle cx="-30" cy="0" r="2.5" fill="#1E1B4B"/>
    </g>

    <!-- --------------------------------------------------------
         TRAIN 5: ROYAL BLUE & GOLD REGIONAL TRANSIT (Right -> Left, 90s)
         Route: Mid-Upper Corridor (y: 642)
         -------------------------------------------------------- -->
    <g class="train-unit train-gold-regional" id="train-track-regional">
      <!-- Headlight Beam pointing Left -->
      <polygon points="-130,-7 -240,-18 -240,4 -130,-2" fill="url(#headlightBeamL)"/>
      <!-- Cab facing Left -->
      <path d="M 0,-15 L -110,-15 Q -128,-15 -132,-4 L -132,-1 L 0,-1 Z" fill="#1E293B" stroke="#D97706" stroke-width="1.2"/>
      <!-- Gold Trim Lines -->
      <line x1="0" y1="-13" x2="-120" y2="-13" stroke="#F59E0B" stroke-width="1.5"/>
      <line x1="0" y1="-4" x2="-128" y2="-4" stroke="#F59E0B" stroke-width="1.5"/>
      <!-- Windows -->
      <rect x="-30" y="-11" width="14" height="4.5" rx="1" fill="#FEF08A"/>
      <rect x="-52" y="-11" width="14" height="4.5" rx="1" fill="#FEF08A"/>
      <rect x="-74" y="-11" width="14" height="4.5" rx="1" fill="#FEF08A"/>
      <rect x="-96" y="-11" width="14" height="4.5" rx="1" fill="#FEF08A"/>
      <!-- Coupler -->
      <rect x="0" y="-7" width="8" height="3" fill="#334155"/>
      <!-- Coach -->
      <rect x="8" y="-15" width="95" height="14" rx="2" fill="#1E293B" stroke="#D97706" stroke-width="1.2"/>
      <line x1="8" y1="-13" x2="103" y2="-13" stroke="#F59E0B" stroke-width="1.5"/>
      <line x1="8" y1="-4" x2="103" y2="-4" stroke="#F59E0B" stroke-width="1.5"/>
      <rect x="18" y="-11" width="14" height="4.5" rx="1" fill="#FEF08A"/>
      <rect x="40" y="-11" width="14" height="4.5" rx="1" fill="#FEF08A"/>
      <rect x="62" y="-11" width="14" height="4.5" rx="1" fill="#FEF08A"/>
      <rect x="84" y="-11" width="14" height="4.5" rx="1" fill="#FEF08A"/>
      <!-- Wheels -->
      <circle cx="-25" cy="0" r="2.5" fill="#0F172A"/>
      <circle cx="-95" cy="0" r="2.5" fill="#0F172A"/>
      <circle cx="30" cy="0" r="2.5" fill="#0F172A"/>
      <circle cx="80" cy="0" r="2.5" fill="#0F172A"/>
    </g>
  </g>
</svg>
